/* XPM */
static const char *cd_xpm[] = {
/* columns rows colors chars-per-pixel */
"24 24 145 2 ",
"   c None",
".  c #1D1342",
"X  c #1D1344",
"o  c #1F1448",
"O  c #20154A",
"+  c #20154B",
"@  c #22164F",
"#  c #251855",
"$  c #261958",
"%  c #281A5D",
"&  c #281A5E",
"*  c #2B1C65",
"=  c #2B1C66",
"-  c #2D1D68",
";  c #2D1D69",
":  c #301F70",
">  c #312074",
",  c #332176",
"<  c #342279",
"1  c #34227B",
"2  c #35227C",
"3  c #36237E",
"4  c #36237F",
"5  c #372481",
"6  c #382482",
"7  c #392584",
"8  c #392586",
"9  c #392587",
"0  c #3B2689",
"q  c #3B268A",
"w  c #3C278C",
"e  c #3C278D",
"r  c #3D288F",
"t  c #3E2891",
"y  c #3E2892",
"u  c #3F2994",
"i  c #3F2995",
"p  c #412A97",
"a  c #412A98",
"s  c #422B9C",
"d  c #432B9D",
"f  c #442C9F",
"g  c #442CA0",
"h  c #452DA2",
"j  c #462DA3",
"k  c #472EA5",
"l  c #472EA7",
"z  c #472EA8",
"x  c #492FAA",
"c  c #492FAB",
"v  c #4A30AD",
"b  c #4A30AE",
"n  c #4C31B2",
"m  c #4D32B5",
"M  c #4D32B6",
"N  c #4F33B8",
"B  c #4F33B9",
"V  c #5034BB",
"C  c #5034BD",
"Z  c #5235C0",
"A  c #5235C1",
"S  c #5436C4",
"D  c #5537C6",
"F  c #5537C8",
"G  c #5638C9",
"H  c #583AC9",
"J  c #593BC9",
"K  c #5A3DCA",
"L  c #5B3ECA",
"P  c #5D40CB",
"I  c #5E41CB",
"U  c #5F43CC",
"Y  c #6145CC",
"T  c #6246CC",
"R  c #6448CD",
"E  c #6449CD",
"W  c #664BCE",
"Q  c #694ECF",
"!  c #6A50CF",
"~  c #6B51CF",
"^  c #6D53D0",
"/  c #6E54D0",
"(  c #7056D1",
")  c #7057D1",
"_  c #7259D2",
"`  c #745BD2",
"'  c #755CD2",
"]  c #765ED3",
"[  c #7961D4",
"{  c #7A62D4",
"}  c #7B64D5",
"|  c #7D66D5",
" . c #7E67D5",
".. c #806AD6",
"X. c #826CD7",
"o. c #836DD7",
"O. c #856FD8",
"+. c #8671D8",
"@. c #8772D8",
"#. c #8974D9",
"$. c #8A75D9",
"%. c #8C77DA",
"&. c #8C78DA",
"*. c #8E7ADB",
"=. c #917DDB",
"-. c #927FDC",
";. c #9380DC",
":. c #9582DD",
">. c #9683DD",
",. c #9785DE",
"<. c #9987DE",
"1. c #9A88DE",
"2. c #9C8ADF",
"3. c #9C8BDF",
"4. c #9E8DE0",
"5. c #9F8EE0",
"6. c #A190E1",
"7. c #A393E1",
"8. c #A595E2",
"9. c #A696E2",
"0. c #A898E3",
"q. c #A899E3",
"w. c #AA9BE4",
"e. c #AC9DE4",
"r. c #AD9EE4",
"t. c #AFA1E5",
"y. c #B1A3E6",
"u. c #B2A4E6",
"i. c #B4A6E7",
"p. c #B5A8E7",
"a. c #B8ABE8",
"s. c #B8ACE8",
"d. c #BAAEE9",
"f. c #BBAFE9",
"g. c #BEB3EA",
"h. c #BFB4EA",
"j. c #C1B6EB",
"k. c #C2B7EB",
"l. c #C4B9EC",
"z. c #C4BAEC",
"x. c #C6BCED",
"c. c #C8BEED",
"v. c #C9BFED",
"b. c #CAC1EE",
"n. c #CBC2EE",
/* pixels */
"                                                ",
"                > k L ` [ ^ C 8                 ",
"            8 (  .}  .O.%.=.,.2.=.h             ",
"          H %.+...}  .O.%.-.<.5.7.0. .%         ",
"        / ;.&.#.o. . .o.%.;.1.7.0.r.y.>.%       ",
"      U 2.,.-.%.O.[ ` [ O.&.<.7.w.t.p.f.%.      ",
"    e 7.5.2.,.&.o.[ / ] o.&.<.7.r.p.f.g.j.B     ",
"    &.0.8.7.1.=.O. ._ [ +.;.2.0.y.f.h.z.x.f.#   ",
"  2 t.r.w.8.5.>.&.+.m 2 5 Z 7.y.f.h.x.v.b.b.k   ",
"  S p.i.u.r.8.7.2.8         2 a.j.v.b.b.v.f.L   ",
"   .f.f.f.i.y.r.Q             R z.r.%.( H C k   ",
"  1.j.j.j.g.f.f.k             : L F L R ! / R . ",
"  5.v.v.v.v.v.v.b             ; Y Y R / / ( R X ",
"  #.b.b.b.x.8. .x             1 B C S P Y R Z   ",
"  P h.5.] S S R R :         + e d z m Z S G u   ",
"  = Z Z U / ! P Z b : $ ; q p 5 8 u k b m V ;   ",
"    C ( ] ^ P Z b a 6 t n V h e 5 8 u h k h o   ",
"    > ( Q U G m h e 2 t x C b d e 8 q t d =     ",
"      h P G C b d q 6 u x Z C b f r 8 8 > o     ",
"        k Z n k u 8 e h m H H B z d e > o       ",
"        + q x d e 6 t h m F P Z n h 1 o         ",
"            % 8 q 8 u h m S P F x = +           ",
"                @ % 1 u h h e ; o               ",
"                                                "
};
