/* XPM */
static const char *dvd_xpm[] = {
/* columns rows colors chars-per-pixel */
"24 24 103 2 ",
"   c None",
".  c #88998D",
"X  c #8A9B8F",
"o  c #8B9C90",
"O  c #8D9D91",
"+  c #8F9F93",
"@  c #91A195",
"#  c #93A297",
"$  c #94A398",
"%  c #97A69B",
"&  c #98A79C",
"*  c #99A79D",
"=  c #9BA99F",
"-  c #9DABA1",
";  c #9EACA2",
":  c #9FADA3",
">  c #A1AEA5",
",  c #A2AFA6",
"<  c #A3B0A7",
"1  c #A4B1A8",
"2  c #A5B2A9",
"3  c #A6B3AA",
"4  c #A7B3AA",
"5  c #A8B4AB",
"6  c #A9B5AC",
"7  c #AAB6AD",
"8  c #ABB7AE",
"9  c #ACB8AF",
"0  c #AEB9B1",
"q  c #AFBAB2",
"w  c #B0BBB3",
"e  c #B1BCB4",
"r  c #B2BDB5",
"t  c #B3BEB6",
"y  c #B4BFB7",
"u  c #B5BFB8",
"i  c #B6C0B9",
"p  c #B7C1BA",
"a  c #B8C2BB",
"s  c #B9C3BC",
"d  c #BAC4BD",
"f  c #BCC5BF",
"g  c #BDC6C0",
"h  c #BEC7C1",
"j  c #BFC8C2",
"k  c #C1CAC4",
"l  c #C2CAC4",
"z  c #C3CBC5",
"x  c #C4CCC6",
"c  c #C5CDC7",
"v  c #C6CEC8",
"b  c #C7CFC9",
"n  c #C8D0CA",
"m  c #CAD1CC",
"M  c #CBD2CD",
"N  c #CCD3CE",
"B  c #CDD4CF",
"V  c #CED5D0",
"C  c #CFD6D1",
"Z  c #D0D6D2",
"A  c #D1D7D3",
"S  c #D2D8D4",
"D  c #D3D9D5",
"F  c #D4DAD6",
"G  c #D5DBD7",
"H  c #D7DCD8",
"J  c #D8DDD9",
"K  c #D9DEDA",
"L  c #DADFDB",
"P  c #DBE0DC",
"I  c #DCE1DD",
"U  c #DDE2DE",
"Y  c #DEE2DF",
"T  c #DFE3E0",
"R  c #E0E4E1",
"E  c #E1E5E2",
"W  c #E2E6E3",
"Q  c #E3E7E4",
"!  c #E5E8E6",
"~  c #E6E9E7",
"^  c #E7EAE8",
"/  c #E8EBE9",
"(  c #E9ECEA",
")  c #EAEDEB",
"_  c #EBEDEC",
"`  c #ECEEED",
"'  c #EDEFEE",
"]  c #EEF0EF",
"[  c #EFF1F0",
"{  c #F0F2F1",
"}  c #F1F3F2",
"|  c #F3F4F3",
" . c #F4F5F4",
".. c #F5F6F5",
"X. c #F6F7F6",
"o. c #F7F8F7",
"O. c #F8F9F8",
"+. c #F9F9F9",
"@. c gray98",
"#. c #FBFBFB",
"$. c gray99",
"%. c #FDFDFD",
"&. c #FEFEFE",
/* pixels */
"                                                ",
"                - t c Z G C g 2                 ",
"            2 Z J G J P Y E ! ^ E t             ",
"          z Y P J G H J Y E ! / _ ` H @         ",
"        C E T Y J H H J Y E ! ) ` ] { E $       ",
"      b ! ! E Y J G Z G J T ! ) ] { ....Y       ",
"    5 ) / ! ! T J G C D J T ! _ ] ....O.O.f     ",
"    T ` _ ) ! E P H Z G Y E ^ ` { ..O.O.$...O   ",
"  > { [ ] ` / Q T Y s > < g _ { ..O.$.$.$.$.y   ",
"  z ..| { ] ` ) ^ 2         > ..O.$.$.$.$...c   ",
"  J ......| { [ N             m O.[ Y Z z g t   ",
"  ! O.O.O.O.o.o.t             = c z c m B C m X ",
"  / $.$.$.$.$.$.i             * n n m C C Z m X ",
"  Y $.$.$.$.` H u             > d g z b n m j   ",
"  b O./ D z z m m =         o 5 q y s j z z 8   ",
"  % j g b C B c g i = @ * 2 9 < 2 9 t i d g *   ",
"    g Z D C b j i q < 8 a g t 5 < 2 9 t y t X   ",
"    ; Z N b z d t 5 > 8 u g i q 5 2 2 8 q %     ",
"      t b z g i q 2 2 9 u j g i w 8 2 2 ; X     ",
"        t g a t 9 2 5 t d z c f y q 5 - X       ",
"        o 2 u w 5 2 8 t d z c j a t > X         ",
"            @ 2 2 2 8 t d z b z u % o           ",
"                O $ ; 8 t t 5 * X               ",
"                                                "
};
