/* XPM */
static const char *dvddl_xpm[] = {
/* columns rows colors chars-per-pixel */
"24 24 145 2 ",
"   c None",
".  c #423913",
"X  c #443A13",
"o  c #483E14",
"O  c #4A4015",
"+  c #4B4015",
"@  c #4F4416",
"#  c #554918",
"$  c #584C19",
"%  c #5D501A",
"&  c #5E511A",
"*  c #65571C",
"=  c #66571C",
"-  c #68591D",
";  c #695A1D",
":  c #70601F",
">  c #746420",
",  c #766521",
"<  c #796822",
"1  c #7B6A22",
"2  c #7C6A22",
"3  c #7E6C23",
"4  c #7F6D23",
"5  c #816F24",
"6  c #827024",
"7  c #847125",
"8  c #867325",
"9  c #877425",
"0  c #897626",
"q  c #8A7626",
"w  c #8C7827",
"e  c #8D7927",
"r  c #8F7B28",
"t  c #917C28",
"y  c #927D28",
"u  c #947F29",
"i  c #958029",
"p  c #97822A",
"a  c #98822A",
"s  c #9C862B",
"d  c #9D872B",
"f  c #9F882C",
"g  c #A0892C",
"h  c #A28B2D",
"j  c #A38C2D",
"k  c #A58E2E",
"l  c #A78F2E",
"z  c #A8902E",
"x  c #AA922F",
"c  c #AB932F",
"v  c #AD9430",
"b  c #AE9530",
"n  c #B29931",
"m  c #B59B32",
"M  c #B69C32",
"N  c #B89E33",
"B  c #B99F33",
"V  c #BBA134",
"C  c #BDA234",
"Z  c #C0A535",
"A  c #C1A635",
"S  c #C4A836",
"D  c #C6AA37",
"F  c #C8AC37",
"G  c #C9AD38",
"H  c #C9AD3A",
"J  c #C9AD3B",
"K  c #CAAE3D",
"L  c #CAAF3E",
"P  c #CBB040",
"I  c #CBB041",
"U  c #CCB143",
"Y  c #CCB245",
"T  c #CCB246",
"R  c #CDB348",
"E  c #CDB349",
"W  c #CEB44B",
"Q  c #CFB64E",
"!  c #CFB650",
"~  c #CFB651",
"^  c #D0B753",
"/  c #D0B854",
"(  c #D1B956",
")  c #D1B957",
"_  c #D2BA59",
"`  c #D2BB5B",
"'  c #D2BB5C",
"]  c #D3BC5E",
"[  c #D4BD61",
"{  c #D4BE62",
"}  c #D5BF64",
"|  c #D5BF66",
" . c #D5BF67",
".. c #D6C16A",
"X. c #D7C26C",
"o. c #D7C26D",
"O. c #D8C36F",
"+. c #D8C471",
"@. c #D8C472",
"#. c #D9C574",
"$. c #D9C575",
"%. c #DAC777",
"&. c #DAC778",
"*. c #DBC87A",
"=. c #DBC97D",
"-. c #DCCA7F",
";. c #DCCA80",
":. c #DDCB82",
">. c #DDCB83",
",. c #DECD85",
"<. c #DECD87",
"1. c #DECD88",
"2. c #DFCE8A",
"3. c #DFCF8B",
"4. c #E0D08D",
"5. c #E0D08E",
"6. c #E1D190",
"7. c #E1D293",
"8. c #E2D395",
"9. c #E2D396",
"0. c #E3D498",
"q. c #E3D499",
"w. c #E4D69B",
"e. c #E4D69D",
"r. c #E4D69E",
"t. c #E5D8A1",
"y. c #E6D9A3",
"u. c #E6D9A4",
"i. c #E7DAA6",
"p. c #E7DBA8",
"a. c #E8DCAB",
"s. c #E8DCAC",
"d. c #E9DDAE",
"f. c #E9DEAF",
"g. c #EADFB3",
"h. c #EADFB4",
"j. c #EBE1B6",
"k. c #EBE1B7",
"l. c #ECE2B9",
"z. c #ECE2BA",
"x. c #EDE3BC",
"c. c #EDE4BE",
"v. c #EDE4BF",
"b. c #EEE5C1",
"n. c #EEE5C2",
/* pixels */
"                                                ",
"                > k L ` [ ^ C 9                 ",
"            8 /  . . .O.%.=.,.2.=.h             ",
"          H %.+... . .O.%.-.,.5.7.0. .%         ",
"        / ;.*.%.o. . .o.%.;.2.7.0.r.y.;.%       ",
"      U 2.,.-.%.O.[ ` [ O.*.,.7.w.y.p.f.%.      ",
"    e 7.5.2.,.&.o.[ / ] o.&.,.7.r.p.f.g.j.B     ",
"    &.0.8.7.2.=.O. .` [ +.;.2.0.y.f.h.z.x.f.#   ",
"  3 y.r.w.8.5.;.*.+.m 2 5 Z 7.y.f.h.x.v.b.b.k   ",
"  S p.u.u.r.8.7.2.9         3 a.j.v.b.b.v.f.L   ",
"   .f.f.f.u.y.r.Q             R z.r.%./ H C k   ",
"  2.j.j.j.g.f.f.k             : L F L W ! / W . ",
"  5.v.v.v.v.v.v.b             ; Y Y W / / / W X ",
"  %.b.b.b.x.8. .x             1 B C S P Y R Z   ",
"  P h.5.' S S R W :         + e d x m Z S H u   ",
"  = Z Z U / ! P Z b : $ ; q p 5 9 p k b M V ;   ",
"    C / ' ^ P Z b a 6 t n V h e 5 9 p h k j o   ",
"    > / Q U H M j e 3 t x C b d e 8 q t d =     ",
"      h P H C b d q 6 p x Z C b f r 8 8 > o     ",
"        k Z n k p 8 e h M H H B x d e > o       ",
"        + q x d e 6 t h M F P Z n j 1 o         ",
"            % 8 q 8 u j M S P F x = +           ",
"                @ % 1 u h h e ; o               ",
"                                                "
};
